<svg width="600" height="400" xmlns="http://www.w3.org/2000/svg">
  <rect width="100%" height="100%" fill="#312e81"/>
  <g transform="translate(300,200)">
    <!-- Browser window -->
    <rect x="-220" y="-120" width="440" height="280" rx="12" fill="white"/>
    <rect x="-220" y="-120" width="440" height="30" rx="12" fill="#e5e7eb"/>
    <circle cx="-190" cy="-105" r="6" fill="#ef4444"/>
    <circle cx="-170" cy="-105" r="6" fill="#f59e0b"/>
    <circle cx="-150" cy="-105" r="6" fill="#10b981"/>
    
    <!-- Portfolio content -->
    <rect x="-200" y="-80" width="400" height="40" rx="4" fill="#3b82f6"/>
    <rect x="-150" y="-20" width="80" height="80" rx="8" fill="#8b5cf6"/>
    <rect x="-50" y="-20" width="80" height="80" rx="8" fill="#06b6d4"/>
    <rect x="50" y="-20" width="80" height="80" rx="8" fill="#10b981"/>
    <rect x="150" y="-20" width="80" height="80" rx="8" fill="#f59e0b"/>
    
    <!-- Skills moving -->
    <circle cx="-100" cy="100" r="4" fill="#3b82f6"/>
    <circle cx="-50" cy="100" r="4" fill="#10b981"/>
    <circle cx="0" cy="100" r="4" fill="#f59e0b"/>
    <circle cx="50" cy="100" r="4" fill="#8b5cf6"/>
    <circle cx="100" cy="100" r="4" fill="#ef4444"/>
    
    <!-- Title -->
    <text x="0" y="190" text-anchor="middle" fill="white" font-family="Arial" font-size="24" font-weight="bold">
      Portfolio Website
    </text>
    <text x="0" y="215" text-anchor="middle" fill="#c7d2fe" font-family="Arial" font-size="14">
      Next.js • Tailwind CSS • Framer Motion
    </text>
  </g>
</svg>











